# xmcd
#
# Track frame offsets:
#	150
#	18950
#	36768
#	53193
#	70447
#	94228
#	113593
#	130464
#	144437
#	160549
#	178123
#	195851
#	216100
#	224284
#	237094
#	253547
#	280261
#
# Disc length: 4204 seconds
#
# Revision: 0
# Processed by: cddbd v1.5.1PL0 Copyright (c) Steve Scherf et al.
# Submitted via: dBpowerAMP V4.0
#
DISCID=ef106a11
DTITLE=Janis Joplin - Anthology
DYEAR=1900
DGENRE=
TTITLE0=Piece of my heart
TTITLE1=Summertime
TTITLE2=Maybe
TTITLE3=Try (Just a little bit harder)
TTITLE4=To love somebody
TTITLE5=Kozmic Blues
TTITLE6=Little Girl blue
TTITLE7=Trust me
TTITLE8=Move over
TTITLE9=Half Moon
TTITLE10=Cry Baby
TTITLE11=Me and Bobby McGee
TTITLE12=Mercedes Benz
TTITLE13=Down on me
TTITLE14=Bye bye Baby
TTITLE15=Get it while you can
TTITLE16=Ball and Chain
EXTD=
EXTT0=
EXTT1=
EXTT2=
EXTT3=
EXTT4=
EXTT5=
EXTT6=
EXTT7=
EXTT8=
EXTT9=
EXTT10=
EXTT11=
EXTT12=
EXTT13=
EXTT14=
EXTT15=
EXTT16=
PLAYORDER=
